<svg width="14" height="14" viewBox="0 0 14 14" fill="none" xmlns="http://www.w3.org/2000/svg">
<path d="M10.332 1.99935H12.9987C13.1755 1.99935 13.3451 2.06959 13.4701 2.19461C13.5951 2.31964 13.6654 2.4892 13.6654 2.66602V13.3327C13.6654 13.5095 13.5951 13.6791 13.4701 13.8041C13.3451 13.9291 13.1755 13.9993 12.9987 13.9993H0.998698C0.821887 13.9993 0.652318 13.9291 0.527293 13.8041C0.402269 13.6791 0.332031 13.5095 0.332031 13.3327V2.66602C0.332031 2.4892 0.402269 2.31964 0.527293 2.19461C0.652318 2.06959 0.821887 1.99935 0.998698 1.99935H3.66536V0.666016H4.9987V1.99935H8.9987V0.666016H10.332V1.99935ZM8.9987 3.33268H4.9987V4.66602H3.66536V3.33268H1.66536V5.99935H12.332V3.33268H10.332V4.66602H8.9987V3.33268ZM12.332 7.33268H1.66536V12.666H12.332V7.33268Z" fill="#472E8D"/>
</svg>
