<svg width="33" height="34" viewBox="0 0 33 34" fill="none" xmlns="http://www.w3.org/2000/svg">
<path d="M30.6044 13.9844H0V33.7714H30.6044V13.9844Z" fill="#BBBBBB"/>
<path d="M20.9608 11.9336H30.6051V13.9831H20.4062L20.9608 11.9336Z" fill="#BBBBBB"/>
<g opacity="0.1">
<path d="M30.6044 13.9824H0V33.7694H30.6044V13.9824Z" fill="black"/>
<path d="M20.9608 11.9336H30.6051V13.9831H20.4062L20.9608 11.9336Z" fill="black"/>
</g>
<path d="M4.79786 0.972371C4.72363 0.652496 4.72363 0.319874 4.79786 0C4.8374 0.158957 4.85593 0.32241 4.85298 0.486185C4.85537 0.649932 4.83685 0.813316 4.79786 0.972371Z" fill="#263238"/>
<path d="M5.78906 1.2583C5.83471 1.10102 5.90029 0.950231 5.9842 0.809595C6.06339 0.666395 6.16085 0.534093 6.27415 0.416016C6.22899 0.573468 6.16338 0.724321 6.07901 0.864719C5.99965 1.00781 5.9022 1.14009 5.78906 1.2583Z" fill="#263238"/>
<path d="M6.50391 1.9968C6.62177 1.88343 6.75367 1.78562 6.89638 1.70575C7.03628 1.62296 7.18588 1.55778 7.34178 1.51172C7.10289 1.73486 6.81637 1.90074 6.50391 1.9968Z" fill="#263238"/>
<path d="M6.75 3.00074C6.90877 2.96223 7.07172 2.94372 7.23508 2.94562C7.39886 2.94267 7.56231 2.9612 7.72127 3.00074C7.56249 3.03918 7.39954 3.05769 7.23619 3.05586C7.07244 3.05824 6.90906 3.03972 6.75 3.00074Z" fill="#263238"/>
<path d="M6.46484 3.99023C6.62207 4.03551 6.77287 4.10072 6.91355 4.18427C7.05642 4.2644 7.18866 4.36218 7.30713 4.47532C6.99345 4.37905 6.70553 4.21324 6.46484 3.99023Z" fill="#263238"/>
<path d="M5.72266 4.70508C5.8357 4.82362 5.93348 4.95584 6.01371 5.09866C6.09761 5.23891 6.16319 5.38933 6.20884 5.54626C5.98475 5.30662 5.81844 5.01888 5.72266 4.70508Z" fill="#263238"/>
<path d="M4.7234 4.95312C4.79762 5.273 4.79762 5.60562 4.7234 5.9255C4.68385 5.76654 4.66532 5.60309 4.66827 5.43931C4.66588 5.27556 4.6844 5.11218 4.7234 4.95312Z" fill="#263238"/>
<path d="M3.73118 4.66797C3.68553 4.82524 3.61995 4.97603 3.53604 5.11667C3.45698 5.26028 3.3595 5.39297 3.24609 5.51135C3.29174 5.35373 3.35732 5.20257 3.44123 5.06155C3.52134 4.91894 3.61872 4.78675 3.73118 4.66797Z" fill="#263238"/>
<path d="M3.01806 3.92578C2.89959 4.03892 2.76736 4.1367 2.62448 4.21683C2.48414 4.30159 2.33329 4.36756 2.17578 4.41307C2.41637 4.18943 2.70426 4.02287 3.01806 3.92578Z" fill="#263238"/>
<path d="M2.76925 2.92636C2.61009 2.9648 2.44678 2.98332 2.28306 2.98148C2.11936 2.98424 1.95598 2.96609 1.79688 2.92746C1.95589 2.88812 2.11927 2.86923 2.28306 2.87124C2.44678 2.86941 2.61009 2.88792 2.76925 2.92636Z" fill="#263238"/>
<path d="M3.05322 1.93626C2.89602 1.89039 2.74525 1.82483 2.60451 1.74112C2.4619 1.66101 2.32972 1.56363 2.21094 1.45117C2.36817 1.49645 2.51896 1.56166 2.65964 1.64521C2.80287 1.72478 2.93517 1.82261 3.05322 1.93626Z" fill="#263238"/>
<path d="M3.79979 1.22594C3.68642 1.10808 3.58861 0.976179 3.50874 0.833469C3.42398 0.693128 3.35801 0.542272 3.3125 0.384766C3.42614 0.502809 3.52398 0.635108 3.60355 0.778345C3.68736 0.918785 3.75328 1.06915 3.79979 1.22594Z" fill="#263238"/>
<path d="M28.4518 4.33203H8.54688V29.8827H28.4518V4.33203Z" fill="#EBEBEB"/>
<path d="M28.4501 29.884L8.54621 29.9193H8.51093V29.884L8.49219 4.33332V4.2793H8.54621L28.4501 4.29142H28.4919V4.33332L28.4501 29.884ZM28.4501 29.884L28.4093 4.33332L28.4501 4.37411L8.54621 4.38734L8.60023 4.33332L8.58038 29.884L8.54621 29.8498L28.4501 29.884Z" fill="#DBDBDB"/>
<path d="M10.7227 9.79328L18.4972 9.77344L26.2718 9.79328L18.4972 9.81313L10.7227 9.79328Z" fill="#C7C7C7"/>
<path d="M10.7227 10.428L18.4972 10.4082L26.2718 10.428L18.4972 10.4479L10.7227 10.428Z" fill="#C7C7C7"/>
<path d="M10.7227 11.0628L18.4972 11.043L26.2718 11.0628L18.4972 11.0816L10.7227 11.0628Z" fill="#C7C7C7"/>
<path d="M10.7227 11.6956L18.4972 11.6758L26.2718 11.6956L18.4972 11.7155L10.7227 11.6956Z" fill="#C7C7C7"/>
<path d="M10.7227 12.3304L18.4972 12.3105L26.2718 12.3304L18.4972 12.3502L10.7227 12.3304Z" fill="#C7C7C7"/>
<path d="M10.7227 12.9632L18.4972 12.9434L26.2718 12.9632L18.4972 12.983L10.7227 12.9632Z" fill="#C7C7C7"/>
<path d="M10.7227 13.598L18.4972 13.5781L26.2718 13.598L18.4972 13.6178L10.7227 13.598Z" fill="#C7C7C7"/>
<path d="M10.7227 14.2316L18.4972 14.2129L26.2718 14.2316L18.4972 14.2515L10.7227 14.2316Z" fill="#C7C7C7"/>
<path d="M10.7227 14.8675L18.4972 14.8477L26.2718 14.8675L18.4972 14.8862L10.7227 14.8675Z" fill="#C7C7C7"/>
<path d="M10.7227 15.5003L18.4972 15.4805L26.2718 15.5003L18.4972 15.5191L10.7227 15.5003Z" fill="#C7C7C7"/>
<path d="M10.7227 16.1351L18.4972 16.1152L26.2718 16.1351L18.4972 16.1549L10.7227 16.1351Z" fill="#C7C7C7"/>
<path d="M10.7227 16.7679L18.4972 16.748L26.2718 16.7679L18.4972 16.7877L10.7227 16.7679Z" fill="#C7C7C7"/>
<path d="M10.7227 17.4027L18.4972 17.3828L26.2718 17.4027L18.4972 17.4225L10.7227 17.4027Z" fill="#C7C7C7"/>
<path d="M10.7227 18.0363L18.4972 18.0176L26.2718 18.0363L18.4972 18.0562L10.7227 18.0363Z" fill="#C7C7C7"/>
<path d="M10.7227 18.6711L18.4972 18.6523L26.2718 18.6711L18.4972 18.6909L10.7227 18.6711Z" fill="#C7C7C7"/>
<path d="M13.5468 16.748H12.3672V19.4094H13.5468V16.748Z" fill="#BBBBBB"/>
<path d="M15.7343 15.3301H14.5547V19.4103H15.7343V15.3301Z" fill="#BBBBBB"/>
<path d="M17.9218 13.7402H16.7422V19.4102H17.9218V13.7402Z" fill="#BBBBBB"/>
<path d="M20.1093 13.0566H18.9297V19.409H20.1093V13.0566Z" fill="#BBBBBB"/>
<path d="M22.2968 11.8418H21.1172V19.4102H22.2968V11.8418Z" fill="#BBBBBB"/>
<path d="M24.4843 10.6406H23.3047V19.4107H24.4843V10.6406Z" fill="#BBBBBB"/>
<path d="M11.1431 9.34961L11.1739 11.8643L11.1949 14.3801C11.2092 16.057 11.2136 17.7338 11.2169 19.4107L11.1431 19.3379H14.9256L18.7071 19.3467L22.4896 19.371L26.2711 19.414L22.4896 19.457L18.7071 19.4812L14.9256 19.4901H11.1431H11.0703V19.4173C11.0703 17.7404 11.0769 16.0636 11.0913 14.3868L11.1133 11.8709L11.1431 9.34961Z" fill="#C7C7C7"/>
<path d="M13.5468 19.9414H12.3672V20.0483H13.5468V19.9414Z" fill="#C7C7C7"/>
<path d="M15.7343 19.9414H14.5547V20.0483H15.7343V19.9414Z" fill="#C7C7C7"/>
<path d="M17.9218 19.9414H16.7422V20.0483H17.9218V19.9414Z" fill="#C7C7C7"/>
<path d="M20.1093 19.9414H18.9297V20.0483H20.1093V19.9414Z" fill="#C7C7C7"/>
<path d="M22.2968 19.9414H21.1172V20.0483H22.2968V19.9414Z" fill="#C7C7C7"/>
<path d="M24.4843 19.9414H23.3047V20.0483H24.4843V19.9414Z" fill="#C7C7C7"/>
<path d="M12.5022 17.0847C13.0783 17.0758 13.6534 17.0319 14.2243 16.9535C14.7946 16.8806 15.3609 16.7786 15.9209 16.6481C17.0419 16.3959 18.1294 16.0129 19.1611 15.507C20.1952 15.0088 21.149 14.3589 21.9911 13.5788L22.151 13.4344L22.302 13.2812L22.603 12.9736C22.7882 12.7531 22.9877 12.548 23.1542 12.3121C23.5109 11.8588 23.8337 11.3797 24.12 10.8789H24.1299C23.6088 11.9165 22.9159 12.8585 22.0804 13.6648C21.6637 14.0702 21.213 14.4391 20.7332 14.7673C20.256 15.0988 19.7544 15.3936 19.2327 15.6493C17.134 16.6545 14.8262 17.1458 12.5 17.0825L12.5022 17.0847Z" fill="#263238"/>
<path d="M24.4539 11.7067L24.2907 11.7474L24.0901 10.9426L23.3018 11.2017L23.25 11.0419L24.2091 10.7266L24.4539 11.7067Z" fill="#263238"/>
<path d="M10.3905 24.0234L26.6055 24.0234V23.3675L10.3905 23.3675V24.0234Z" fill="#DBDBDB"/>
<path d="M10.3911 25.6777H19.5195V25.0218H10.3911V25.6777Z" fill="#DBDBDB"/>
<path d="M13.9341 7.8125L23.0625 7.8125V7.15653L13.9341 7.15653V7.8125Z" fill="#DBDBDB"/>
<path d="M24.6667 28.5157L4.76172 28.5057L4.77495 2.95508L19.5535 2.96279L24.6766 7.83347L24.6667 28.5157Z" fill="#BBBBBB"/>
<path opacity="0.6" d="M24.6667 28.5157L4.76172 28.5057L4.77495 2.95508L19.5535 2.96279L24.6766 7.83347L24.6667 28.5157Z" fill="white"/>
<path d="M19.553 2.96289L24.6761 7.83357L19.5508 7.83136L19.553 2.96289Z" fill="#BBBBBB"/>
<path opacity="0.4" d="M19.553 2.96289L24.6761 7.83357L19.5508 7.83136L19.553 2.96289Z" fill="white"/>
<path d="M6.70302 7.92969H17.7695V7.27372H6.70302V7.92969Z" fill="white"/>
<path d="M6.71474 9.55475L17.7812 9.56055L17.7816 8.90458L6.71508 8.89879L6.71474 9.55475Z" fill="white"/>
<path d="M6.71083 11.211L17.7773 11.2168L17.7777 10.5608L6.71118 10.555L6.71083 11.211Z" fill="white"/>
<path d="M6.71077 12.8665L22.9258 12.875L22.9261 12.219L6.71111 12.2105L6.71077 12.8665Z" fill="white"/>
<path d="M6.71077 14.5228L22.9258 14.5312L22.9261 13.8753L6.71111 13.8668L6.71077 14.5228Z" fill="white"/>
<path d="M6.71077 16.179L22.9258 16.1875L22.9261 15.5315L6.71111 15.523L6.71077 16.179Z" fill="white"/>
<path d="M6.70686 17.8353L22.9219 17.8438L22.9222 17.1878L6.7072 17.1793L6.70686 17.8353Z" fill="white"/>
<path d="M6.70686 19.4915L22.9219 19.5L22.9222 18.844L6.7072 18.8355L6.70686 19.4915Z" fill="white"/>
<path d="M6.70686 21.1478L22.9219 21.1562L22.9222 20.5003L6.7072 20.4918L6.70686 21.1478Z" fill="white"/>
<path d="M6.70686 22.804L22.9219 22.8125L22.9222 22.1565L6.70721 22.148L6.70686 22.804Z" fill="white"/>
<path d="M6.70296 24.4583L22.918 24.4668L22.9183 23.8108L6.7033 23.8023L6.70296 24.4583Z" fill="white"/>
<path d="M6.70296 26.1146L22.918 26.123L22.9183 25.4671L6.7033 25.4586L6.70296 26.1146Z" fill="white"/>
<path d="M0.0703125 33.7704H30.6747L32.7804 15.625H2.17602L0.0703125 33.7704Z" fill="#BBBBBB"/>
<path d="M23.3538 13.7461H32.9992L32.7809 15.6258H22.582L23.3538 13.7461Z" fill="#BBBBBB"/>
</svg>
