<svg width="14" height="14" viewBox="0 0 14 14" fill="none" xmlns="http://www.w3.org/2000/svg">
<path d="M6.33203 0.333984C9.64403 0.333984 12.332 3.02198 12.332 6.33398C12.332 9.64598 9.64403 12.334 6.33203 12.334C3.02003 12.334 0.332031 9.64598 0.332031 6.33398C0.332031 3.02198 3.02003 0.333984 6.33203 0.333984ZM6.33203 11.0007C8.91003 11.0007 10.9987 8.91198 10.9987 6.33398C10.9987 3.75532 8.91003 1.66732 6.33203 1.66732C3.75336 1.66732 1.66536 3.75532 1.66536 6.33398C1.66536 8.91198 3.75336 11.0007 6.33203 11.0007ZM11.9887 11.048L13.8747 12.9333L12.9314 13.8767L11.046 11.9907L11.9887 11.048Z" fill="#472E8D"/>
</svg>
